<?xml version="1.0" encoding="utf-8" ?>
<svg baseProfile="full" height="2305.0px" style="background-color:rgb(255, 255, 255)" version="1.1" viewBox="-40,-215.0,1660,2305.0" width="1660px" xmlns="http://www.w3.org/2000/svg" xmlns:ev="http://www.w3.org/2001/xml-events" xmlns:xlink="http://www.w3.org/1999/xlink"><defs><marker id="id34" markerHeight="4" markerWidth="4" orient="auto" refX="2" refY="2"><path d="M0,0 V4 L2,2 Z" stroke-width="1" /></marker></defs><g id="stream-1"><path d="M 40 20.0  L 40 20  L 140 20  L 140 30  L 150 30 " fill="none" marker-end="url(#id34)" stroke="rgb(0, 0, 0)" stroke-width="2" /><text fill="rgb(0, 0, 0)" font-family="Arial" font-size="10" text-anchor="middle" x="65" y="10">stream-1</text></g><g id="stream-2"><path d="M 380 30.0  L 380 30  L 490 30  L 490 130  L 500 130 " fill="none" marker-end="url(#id34)" stroke="rgb(0, 0, 0)" stroke-width="2" /><text fill="rgb(0, 0, 0)" font-family="Arial" font-size="10" text-anchor="middle" x="405" y="20">stream-2</text></g><g id="stream-3"><path d="M 380 30.0  L 380 30  L 390 30  L 390 -70  L 500 -70 " fill="none" marker-end="url(#id34)" stroke="rgb(0, 0, 0)" stroke-width="2" /><text fill="rgb(0, 0, 0)" font-family="Arial" font-size="10" text-anchor="middle" x="405" y="40">stream-3</text></g><g id="stream-4"><path d="M 580 130.0  L 580 130  L 650 130 " fill="none" marker-end="url(#id34)" stroke="rgb(0, 0, 0)" stroke-width="2" /><text fill="rgb(0, 0, 0)" font-family="Arial" font-size="10" text-anchor="middle" x="605" y="120">stream-4</text></g><g id="stream-5"><path d="M 730 130.0  L 730 130  L 800 130 " fill="none" marker-end="url(#id34)" stroke="rgb(0, 0, 0)" stroke-width="2" /><text fill="rgb(0, 0, 0)" font-family="Arial" font-size="10" text-anchor="middle" x="755" y="120">stream-5</text></g><g id="stream-6"><path d="M 730 130.0  L 730 130  L 740 130  L 740 170  L 490 170  L 490 130  L 500 130 " fill="none" marker-end="url(#id34)" stroke="rgb(0, 0, 0)" stroke-width="2" /><text fill="rgb(0, 0, 0)" font-family="Arial" font-size="10" text-anchor="middle" x="755" y="120">stream-6</text></g><g id="stream-7"><path d="M 880 130.0  L 880 130  L 890 130  L 890 210  L 790 210  L 790 280  L 690 280  L 690 490  L 440 490  L 440 530  L 450 530 " fill="none" marker-end="url(#id34)" stroke="rgb(0, 0, 0)" stroke-width="2" /><text fill="rgb(0, 0, 0)" font-family="Arial" font-size="10" text-anchor="middle" x="905" y="120">stream-7</text></g><g id="stream-8"><path d="M 880 130.0  L 880 130  L 890 130  L 890 170  L 880 170  L 880 200  L 780 200  L 780 270  L 680 270  L 680 480  L 430 480  L 430 490  L 140 490  L 140 530  L 150 530 " fill="none" marker-end="url(#id34)" stroke="rgb(0, 0, 0)" stroke-width="2" /><text fill="rgb(0, 0, 0)" font-family="Arial" font-size="10" text-anchor="middle" x="905" y="120">stream-8</text></g><g id="stream-9"><path d="M 530 530.0  L 530 530  L 600 530 " fill="none" marker-end="url(#id34)" stroke="rgb(0, 0, 0)" stroke-width="2" /><text fill="rgb(0, 0, 0)" font-family="Arial" font-size="10" text-anchor="middle" x="555" y="520">stream-9</text></g><g id="stream-10"><path d="M 40 520.0  L 40 520  L 130 520  L 130 530  L 150 530 " fill="none" marker-end="url(#id34)" stroke="rgb(0, 0, 0)" stroke-width="2" /><text fill="rgb(0, 0, 0)" font-family="Arial" font-size="10" text-anchor="middle" x="65" y="510">stream-10</text></g><g id="stream-11"><path d="M 230 530.0  L 230 530  L 300 530 " fill="none" marker-end="url(#id34)" stroke="rgb(0, 0, 0)" stroke-width="2" /><text fill="rgb(0, 0, 0)" font-family="Arial" font-size="10" text-anchor="middle" x="255" y="520">stream-11</text></g><g id="stream-12"><path d="M 380 530.0  L 380 530  L 450 530 " fill="none" marker-end="url(#id34)" stroke="rgb(0, 0, 0)" stroke-width="2" /><text fill="rgb(0, 0, 0)" font-family="Arial" font-size="10" text-anchor="middle" x="405" y="520">stream-12</text></g><g id="stream-13"><path d="M 680 530.0  L 680 530  L 750 530 " fill="none" marker-end="url(#id34)" stroke="rgb(0, 0, 0)" stroke-width="2" /><text fill="rgb(0, 0, 0)" font-family="Arial" font-size="10" text-anchor="middle" x="705" y="520">stream-13</text></g><g id="stream-14"><path d="M 40 1020.0  L 40 1020  L 140 1020  L 140 1030  L 150 1030 " fill="none" marker-end="url(#id34)" stroke="rgb(0, 0, 0)" stroke-width="2" /><text fill="rgb(0, 0, 0)" font-family="Arial" font-size="10" text-anchor="middle" x="65" y="1010">stream-14</text></g><g id="stream-15"><path d="M 230 1030.0  L 230 1030  L 300 1030 " fill="none" marker-end="url(#id34)" stroke="rgb(0, 0, 0)" stroke-width="2" /><text fill="rgb(0, 0, 0)" font-family="Arial" font-size="10" text-anchor="middle" x="255" y="1020">stream-15</text></g><g id="stream-16"><path d="M 380 1030.0  L 380 1030  L 390 1030  L 390 570  L 540 570  L 540 540  L 590 540  L 590 530  L 600 530 " fill="none" marker-end="url(#id34)" stroke="rgb(0, 0, 0)" stroke-width="2" /><text fill="rgb(0, 0, 0)" font-family="Arial" font-size="10" text-anchor="middle" x="405" y="1040">stream-16</text></g><g id="stream-17"><path d="M 830 530.0  L 830 530  L 840 530  L 840 460  L 950 460  L 950 455.0 " fill="none" marker-end="url(#id34)" stroke="rgb(0, 0, 0)" stroke-width="2" /><text fill="rgb(0, 0, 0)" font-family="Arial" font-size="10" text-anchor="middle" x="855" y="540">stream-17</text></g><g id="stream-18"><path d="M 830 530.0  L 830 530  L 850 530  L 850 490  L 1040 490  L 1040 440  L 1070 440  L 1070 260  L 1150 260  L 1150 255.0 " fill="none" marker-end="url(#id34)" stroke="rgb(0, 0, 0)" stroke-width="2" /><text fill="rgb(0, 0, 0)" font-family="Arial" font-size="10" text-anchor="middle" x="855" y="540">stream-18</text></g><g id="stream-19"><path d="M 830 530.0  L 830 530  L 860 530  L 860 500  L 1050 500  L 1050 450  L 1080 450  L 1080 290  L 1240 290  L 1240 -140  L 1350 -140  L 1350 -145.0 " fill="none" marker-end="url(#id34)" stroke="rgb(0, 0, 0)" stroke-width="2" /><text fill="rgb(0, 0, 0)" font-family="Arial" font-size="10" text-anchor="middle" x="855" y="540">stream-19</text></g><g id="stream-20"><path d="M 40 1520.0  L 40 1520  L 140 1520  L 140 1530  L 150 1530 " fill="none" marker-end="url(#id34)" stroke="rgb(0, 0, 0)" stroke-width="2" /><text fill="rgb(0, 0, 0)" font-family="Arial" font-size="10" text-anchor="middle" x="65" y="1510">stream-20</text></g><g id="stream-21"><path d="M 230 1530.0  L 230 1530  L 300 1530 " fill="none" marker-end="url(#id34)" stroke="rgb(0, 0, 0)" stroke-width="2" /><text fill="rgb(0, 0, 0)" font-family="Arial" font-size="10" text-anchor="middle" x="255" y="1520">stream-21</text></g><g id="stream-22"><path d="M 380 1530.0  L 380 1530  L 490 1530  L 490 1630  L 500 1630 " fill="none" marker-end="url(#id34)" stroke="rgb(0, 0, 0)" stroke-width="2" /><text fill="rgb(0, 0, 0)" font-family="Arial" font-size="10" text-anchor="middle" x="405" y="1520">stream-22</text></g><g id="stream-23"><path d="M 380 1530.0  L 380 1530  L 390 1530  L 390 1430  L 500 1430 " fill="none" marker-end="url(#id34)" stroke="rgb(0, 0, 0)" stroke-width="2" /><text fill="rgb(0, 0, 0)" font-family="Arial" font-size="10" text-anchor="middle" x="405" y="1540">stream-23</text></g><g id="stream-24"><path d="M 580 1630.0  L 580 1630  L 590 1630  L 590 1570  L 140 1570  L 140 1530  L 150 1530 " fill="none" marker-end="url(#id34)" stroke="rgb(0, 0, 0)" stroke-width="2" /><text fill="rgb(0, 0, 0)" font-family="Arial" font-size="10" text-anchor="middle" x="605" y="1640">stream-24</text></g><g id="stream-25"><path d="M 580 1430.0  L 580 1430  L 690 1430  L 690 1480  L 700 1480 " fill="none" marker-end="url(#id34)" stroke="rgb(0, 0, 0)" stroke-width="2" /><text fill="rgb(0, 0, 0)" font-family="Arial" font-size="10" text-anchor="middle" x="605" y="1420">stream-25</text></g><g id="stream-26"><path d="M 580 1430.0  L 580 1430  L 590 1430  L 590 1280  L 700 1280 " fill="none" marker-end="url(#id34)" stroke="rgb(0, 0, 0)" stroke-width="2" /><text fill="rgb(0, 0, 0)" font-family="Arial" font-size="10" text-anchor="middle" x="605" y="1440">stream-26</text></g><g id="stream-27"><path d="M 780 1280.0  L 780 1280  L 850 1280 " fill="none" marker-end="url(#id34)" stroke="rgb(0, 0, 0)" stroke-width="2" /><text fill="rgb(0, 0, 0)" font-family="Arial" font-size="10" text-anchor="middle" x="805" y="1270">stream-27</text></g><g id="stream-28"><path d="M 780 1280.0  L 780 1280  L 790 1280  L 790 1440  L 690 1440  L 690 1480  L 700 1480 " fill="none" marker-end="url(#id34)" stroke="rgb(0, 0, 0)" stroke-width="2" /><text fill="rgb(0, 0, 0)" font-family="Arial" font-size="10" text-anchor="middle" x="805" y="1270">stream-28</text></g><g id="stream-29"><path d="M 930 1280.0  L 930 1280  L 1000 1280 " fill="none" marker-end="url(#id34)" stroke="rgb(0, 0, 0)" stroke-width="2" /><text fill="rgb(0, 0, 0)" font-family="Arial" font-size="10" text-anchor="middle" x="955" y="1270">stream-29</text></g><g id="stream-30"><path d="M 1080 1280.0  L 1080 1280  L 1090 1280  L 1090 590  L 850 590  L 850 570  L 740 570  L 740 530  L 750 530 " fill="none" marker-end="url(#id34)" stroke="rgb(0, 0, 0)" stroke-width="2" /><text fill="rgb(0, 0, 0)" font-family="Arial" font-size="10" text-anchor="middle" x="1105" y="1290">stream-30</text></g><g id="stream-31"><path d="M 1030 455.0  L 1030 460  L 1040 460  L 1040 490  L 740 490  L 740 530  L 750 530 " fill="none" marker-end="url(#id34)" stroke="rgb(0, 0, 0)" stroke-width="2" /><text fill="rgb(0, 0, 0)" font-family="Arial" font-size="10" text-anchor="middle" x="1055" y="450">stream-31</text></g><g id="stream-32"><path d="M 1230 255.0  L 1230 260  L 1250 260  L 1250 -130  L 1340 -130  L 1340 -140  L 1350 -140  L 1350 -145.0 " fill="none" marker-end="url(#id34)" stroke="rgb(0, 0, 0)" stroke-width="2" /><text fill="rgb(0, 0, 0)" font-family="Arial" font-size="10" text-anchor="middle" x="1255" y="270">stream-32</text></g><g id="stream-33"><path d="M 1430 -145.0  L 1430 -140  L 1500 -140  L 1500 -145.0 " fill="none" marker-end="url(#id34)" stroke="rgb(0, 0, 0)" stroke-width="2" /><text fill="rgb(0, 0, 0)" font-family="Arial" font-size="10" text-anchor="middle" x="1455" y="-150">stream-33</text></g><g id="stream-34"><path d="M 40 2020.0  L 40 2020  L 50 2020  L 50 1030  L 120 1030  L 120 70  L 240 70  L 240 -60  L 490 -60  L 490 -70  L 500 -70 " fill="none" marker-end="url(#id34)" stroke="rgb(0, 0, 0)" stroke-width="2" /><text fill="rgb(0, 0, 0)" font-family="Arial" font-size="10" text-anchor="middle" x="65" y="2030">stream-34</text></g><g id="stream-35"><path d="M 580 -70.0  L 580 -70  L 650 -70 " fill="none" marker-end="url(#id34)" stroke="rgb(0, 0, 0)" stroke-width="2" /><text fill="rgb(0, 0, 0)" font-family="Arial" font-size="10" text-anchor="middle" x="605" y="-80">stream-35</text></g><g id="stream-36"><path d="M 730 -70.0  L 730 -70  L 800 -70 " fill="none" marker-end="url(#id34)" stroke="rgb(0, 0, 0)" stroke-width="2" /><text fill="rgb(0, 0, 0)" font-family="Arial" font-size="10" text-anchor="middle" x="755" y="-80">stream-36</text></g><g id="stream-37"><path d="M 230 30.0  L 230 30  L 300 30 " fill="none" marker-end="url(#id34)" stroke="rgb(0, 0, 0)" stroke-width="2" /><text fill="rgb(0, 0, 0)" font-family="Arial" font-size="10" text-anchor="middle" x="255" y="20">stream-37</text></g><g id="stream-38"><path d="M 880 -70.0  L 880 -70  L 950 -70 " fill="none" marker-end="url(#id34)" stroke="rgb(0, 0, 0)" stroke-width="2" /><text fill="rgb(0, 0, 0)" font-family="Arial" font-size="10" text-anchor="middle" x="905" y="-80">stream-38</text></g><g id="raw-1T"><path d="M 0 10.0  L 20.0 10.0  L 20.0 0  L 40 20.0  L 20.0 40  L 20.0 30.0  L 0 30.0  Z" fill="rgb(255, 255, 255)" stroke="rgb(0, 0, 0)" stroke-width="2" /></g><g id="raw-1"><text fill="rgb(0, 0, 0)" font-family="Arial" font-size="12" text-anchor="middle" x="20.0" y="25.0">raw-1</text></g><g id="C-1/TCT"><rect fill="rgb(255, 255, 255)" height="60" stroke="rgb(0, 0, 0)" stroke-width="2" width="80" x="300" y="0" /></g><g id="C-1/TC"><text fill="rgb(0, 0, 0)" font-family="Arial" font-size="12" text-anchor="middle" x="340.0" y="35.0">C-1/TC</text></g><g id="hex-2T"><rect fill="rgb(255, 255, 255)" height="60" stroke="rgb(0, 0, 0)" stroke-width="2" width="80" x="500" y="100" /></g><g id="hex-2"><text fill="rgb(0, 0, 0)" font-family="Arial" font-size="12" text-anchor="middle" x="540.0" y="135.0">hex-2</text></g><g id="C-2/TCT"><rect fill="rgb(255, 255, 255)" height="60" stroke="rgb(0, 0, 0)" stroke-width="2" width="80" x="650" y="100" /></g><g id="C-2/TC"><text fill="rgb(0, 0, 0)" font-family="Arial" font-size="12" text-anchor="middle" x="690.0" y="135.0">C-2/TC</text></g><g id="C-3/FTT"><rect fill="rgb(255, 255, 255)" height="60" stroke="rgb(0, 0, 0)" stroke-width="2" width="80" x="800" y="100" /></g><g id="C-3/FT"><text fill="rgb(0, 0, 0)" font-family="Arial" font-size="12" text-anchor="middle" x="840.0" y="135.0">C-3/FT</text></g><g id="mix-1T"><rect fill="rgb(255, 255, 255)" height="60" stroke="rgb(0, 0, 0)" stroke-width="2" width="80" x="450" y="500" /></g><g id="mix-1"><text fill="rgb(0, 0, 0)" font-family="Arial" font-size="12" text-anchor="middle" x="490.0" y="535.0">mix-1</text></g><g id="raw-2T"><path d="M 0 510.0  L 20.0 510.0  L 20.0 500  L 40 520.0  L 20.0 540  L 20.0 530.0  L 0 530.0  Z" fill="rgb(255, 255, 255)" stroke="rgb(0, 0, 0)" stroke-width="2" /></g><g id="raw-2"><text fill="rgb(0, 0, 0)" font-family="Arial" font-size="12" text-anchor="middle" x="20.0" y="525.0">raw-2</text></g><g id="C-4/FFCT"><rect fill="rgb(255, 255, 255)" height="60" stroke="rgb(0, 0, 0)" stroke-width="2" width="80" x="150" y="500" /></g><g id="C-4/FFC"><text fill="rgb(0, 0, 0)" font-family="Arial" font-size="12" text-anchor="middle" x="190.0" y="535.0">C-4/FFC</text></g><g id="v-1T"><rect fill="rgb(255, 255, 255)" height="60" stroke="rgb(0, 0, 0)" stroke-width="2" width="80" x="300" y="500" /></g><g id="v-1"><text fill="rgb(0, 0, 0)" font-family="Arial" font-size="12" text-anchor="middle" x="340.0" y="535.0">v-1</text></g><g id="mix-2T"><rect fill="rgb(255, 255, 255)" height="60" stroke="rgb(0, 0, 0)" stroke-width="2" width="80" x="600" y="500" /></g><g id="mix-2"><text fill="rgb(0, 0, 0)" font-family="Arial" font-size="12" text-anchor="middle" x="640.0" y="535.0">mix-2</text></g><g id="raw-3T"><path d="M 0 1010.0  L 20.0 1010.0  L 20.0 1000  L 40 1020.0  L 20.0 1040  L 20.0 1030.0  L 0 1030.0  Z" fill="rgb(255, 255, 255)" stroke="rgb(0, 0, 0)" stroke-width="2" /></g><g id="raw-3"><text fill="rgb(0, 0, 0)" font-family="Arial" font-size="12" text-anchor="middle" x="20.0" y="1025.0">raw-3</text></g><g id="C-5/FCT"><rect fill="rgb(255, 255, 255)" height="60" stroke="rgb(0, 0, 0)" stroke-width="2" width="80" x="150" y="1000" /></g><g id="C-5/FC"><text fill="rgb(0, 0, 0)" font-family="Arial" font-size="12" text-anchor="middle" x="190.0" y="1035.0">C-5/FC</text></g><g id="v-2T"><rect fill="rgb(255, 255, 255)" height="60" stroke="rgb(0, 0, 0)" stroke-width="2" width="80" x="300" y="1000" /></g><g id="v-2"><text fill="rgb(0, 0, 0)" font-family="Arial" font-size="12" text-anchor="middle" x="340.0" y="1035.0">v-2</text></g><g id="r-1T"><rect fill="rgb(255, 255, 255)" height="60" stroke="rgb(0, 0, 0)" stroke-width="2" width="80" x="750" y="500" /></g><g id="r-1"><text fill="rgb(0, 0, 0)" font-family="Arial" font-size="12" text-anchor="middle" x="790.0" y="535.0">r-1</text></g><g id="raw-4T"><path d="M 0 1510.0  L 20.0 1510.0  L 20.0 1500  L 40 1520.0  L 20.0 1540  L 20.0 1530.0  L 0 1530.0  Z" fill="rgb(255, 255, 255)" stroke="rgb(0, 0, 0)" stroke-width="2" /></g><g id="raw-4"><text fill="rgb(0, 0, 0)" font-family="Arial" font-size="12" text-anchor="middle" x="20.0" y="1525.0">raw-4</text></g><g id="v-3T"><rect fill="rgb(255, 255, 255)" height="60" stroke="rgb(0, 0, 0)" stroke-width="2" width="80" x="150" y="1500" /></g><g id="v-3"><text fill="rgb(0, 0, 0)" font-family="Arial" font-size="12" text-anchor="middle" x="190.0" y="1535.0">v-3</text></g><g id="tank-1T"><rect fill="rgb(255, 255, 255)" height="60" stroke="rgb(0, 0, 0)" stroke-width="2" width="80" x="300" y="1500" /></g><g id="tank-1"><text fill="rgb(0, 0, 0)" font-family="Arial" font-size="12" text-anchor="middle" x="340.0" y="1535.0">tank-1</text></g><g id="C-6/LCT"><rect fill="rgb(255, 255, 255)" height="60" stroke="rgb(0, 0, 0)" stroke-width="2" width="80" x="500" y="1600" /></g><g id="C-6/LC"><text fill="rgb(0, 0, 0)" font-family="Arial" font-size="12" text-anchor="middle" x="540.0" y="1635.0">C-6/LC</text></g><g id="comp-1T"><rect fill="rgb(255, 255, 255)" height="60" stroke="rgb(0, 0, 0)" stroke-width="2" width="80" x="500" y="1400" /></g><g id="comp-1"><text fill="rgb(0, 0, 0)" font-family="Arial" font-size="12" text-anchor="middle" x="540.0" y="1435.0">comp-1</text></g><g id="C-7/MT"><rect fill="rgb(255, 255, 255)" height="60.0" stroke="rgb(0, 0, 0)" stroke-width="2" width="80" x="700" y="1450.0" /></g><g id="C-7/M"><text fill="rgb(0, 0, 0)" font-family="Arial" font-size="12" text-anchor="middle" x="740.0" y="1485.0">C-7/M</text></g><g id="C-8/PCT"><rect fill="rgb(255, 255, 255)" height="60.0" stroke="rgb(0, 0, 0)" stroke-width="2" width="80" x="700" y="1250.0" /></g><g id="C-8/PC"><text fill="rgb(0, 0, 0)" font-family="Arial" font-size="12" text-anchor="middle" x="740.0" y="1285.0">C-8/PC</text></g><g id="C-9/FCT"><rect fill="rgb(255, 255, 255)" height="60.0" stroke="rgb(0, 0, 0)" stroke-width="2" width="80" x="850" y="1250.0" /></g><g id="C-9/FC"><text fill="rgb(0, 0, 0)" font-family="Arial" font-size="12" text-anchor="middle" x="890.0" y="1285.0">C-9/FC</text></g><g id="v-4T"><rect fill="rgb(255, 255, 255)" height="60.0" stroke="rgb(0, 0, 0)" stroke-width="2" width="80" x="1000" y="1250.0" /></g><g id="v-4"><text fill="rgb(0, 0, 0)" font-family="Arial" font-size="12" text-anchor="middle" x="1040.0" y="1285.0">v-4</text></g><g id="C-10/TCT"><rect fill="rgb(255, 255, 255)" height="60.0" stroke="rgb(0, 0, 0)" stroke-width="2" width="80" x="950" y="425.0" /></g><g id="C-10/TC"><text fill="rgb(0, 0, 0)" font-family="Arial" font-size="12" text-anchor="middle" x="990.0" y="460.0">C-10/TC</text></g><g id="C-11/LCT"><rect fill="rgb(255, 255, 255)" height="60.0" stroke="rgb(0, 0, 0)" stroke-width="2" width="80" x="1150" y="225.0" /></g><g id="C-11/LC"><text fill="rgb(0, 0, 0)" font-family="Arial" font-size="12" text-anchor="middle" x="1190.0" y="260.0">C-11/LC</text></g><g id="v-5T"><rect fill="rgb(255, 255, 255)" height="60.0" stroke="rgb(0, 0, 0)" stroke-width="2" width="80" x="1350" y="-175.0" /></g><g id="v-5"><text fill="rgb(0, 0, 0)" font-family="Arial" font-size="12" text-anchor="middle" x="1390.0" y="-140.0">v-5</text></g><g id="prod-1T"><rect fill="rgb(255, 255, 255)" height="60.0" stroke="rgb(0, 0, 0)" stroke-width="2" width="80" x="1500" y="-175.0" /></g><g id="prod-1"><text fill="rgb(0, 0, 0)" font-family="Arial" font-size="12" text-anchor="middle" x="1540.0" y="-140.0">prod-1</text></g><g id="raw-5T"><path d="M 0 2010.0  L 20.0 2010.0  L 20.0 2000  L 40 2020.0  L 20.0 2040  L 20.0 2030.0  L 0 2030.0  Z" fill="rgb(255, 255, 255)" stroke="rgb(0, 0, 0)" stroke-width="2" /></g><g id="raw-5"><text fill="rgb(0, 0, 0)" font-family="Arial" font-size="12" text-anchor="middle" x="20.0" y="2025.0">raw-5</text></g><g id="C-12/FCT"><rect fill="rgb(255, 255, 255)" height="60" stroke="rgb(0, 0, 0)" stroke-width="2" width="80" x="500" y="-100" /></g><g id="C-12/FC"><text fill="rgb(0, 0, 0)" font-family="Arial" font-size="12" text-anchor="middle" x="540.0" y="-65.0">C-12/FC</text></g><g id="v-6T"><rect fill="rgb(255, 255, 255)" height="60" stroke="rgb(0, 0, 0)" stroke-width="2" width="80" x="650" y="-100" /></g><g id="v-6"><text fill="rgb(0, 0, 0)" font-family="Arial" font-size="12" text-anchor="middle" x="690.0" y="-65.0">v-6</text></g><g id="prod-2T"><rect fill="rgb(255, 255, 255)" height="60" stroke="rgb(0, 0, 0)" stroke-width="2" width="80" x="950" y="-100" /></g><g id="prod-2"><text fill="rgb(0, 0, 0)" font-family="Arial" font-size="12" text-anchor="middle" x="990.0" y="-65.0">prod-2</text></g><g id="hex-1/1T"><rect fill="rgb(255, 255, 255)" height="60" stroke="rgb(0, 0, 0)" stroke-width="2" width="80" x="150" y="0" /></g><g id="hex-1/1"><text fill="rgb(0, 0, 0)" font-family="Arial" font-size="12" text-anchor="middle" x="190.0" y="35.0">hex-1/1</text></g><g id="hex-1/2T"><rect fill="rgb(255, 255, 255)" height="60" stroke="rgb(0, 0, 0)" stroke-width="2" width="80" x="800" y="-100" /></g><g id="hex-1/2"><text fill="rgb(0, 0, 0)" font-family="Arial" font-size="12" text-anchor="middle" x="840.0" y="-65.0">hex-1/2</text></g></svg>