<?xml version="1.0" encoding="utf-8" ?>
<svg baseProfile="full" height="730px" style="background-color:rgb(255, 255, 255)" version="1.1" viewBox="-40,-140,1575,730" width="1575px" xmlns="http://www.w3.org/2000/svg" xmlns:ev="http://www.w3.org/2001/xml-events" xmlns:xlink="http://www.w3.org/1999/xlink"><defs><marker id="id16" markerHeight="4" markerWidth="4" orient="auto" refX="2" refY="2"><path d="M0,0 V4 L2,2 Z" stroke-width="1" /></marker></defs><g id="stream-1"><path d="M 40 20.0  L 40 20  L 140 20  L 140 30  L 150 30 " fill="none" marker-end="url(#id16)" stroke="rgb(0, 0, 0)" stroke-width="2" /><text fill="rgb(0, 0, 0)" font-family="Arial" font-size="10" text-anchor="middle" x="65" y="10">stream-1</text></g><g id="stream-2"><path d="M 380 30.0  L 380 30  L 490 30  L 490 130  L 500 130 " fill="none" marker-end="url(#id16)" stroke="rgb(0, 0, 0)" stroke-width="2" /><text fill="rgb(0, 0, 0)" font-family="Arial" font-size="10" text-anchor="middle" x="405" y="20">stream-2</text></g><g id="stream-3"><path d="M 380 30.0  L 380 30  L 390 30  L 390 -70  L 500 -70 " fill="none" marker-end="url(#id16)" stroke="rgb(0, 0, 0)" stroke-width="2" /><text fill="rgb(0, 0, 0)" font-family="Arial" font-size="10" text-anchor="middle" x="405" y="40">stream-3</text></g><g id="stream-4"><path d="M 580 130.0  L 580 130  L 650 130 " fill="none" marker-end="url(#id16)" stroke="rgb(0, 0, 0)" stroke-width="2" /><text fill="rgb(0, 0, 0)" font-family="Arial" font-size="10" text-anchor="middle" x="605" y="120">stream-4</text></g><g id="stream-5"><path d="M 730 130.0  L 730 130  L 840 130  L 840 230  L 850 230 " fill="none" marker-end="url(#id16)" stroke="rgb(0, 0, 0)" stroke-width="2" /><text fill="rgb(0, 0, 0)" font-family="Arial" font-size="10" text-anchor="middle" x="755" y="120">stream-5</text></g><g id="stream-6"><path d="M 730 130.0  L 730 130  L 740 130  L 740 60  L 850 60  L 850 55.0 " fill="none" marker-end="url(#id16)" stroke="rgb(0, 0, 0)" stroke-width="2" /><text fill="rgb(0, 0, 0)" font-family="Arial" font-size="10" text-anchor="middle" x="755" y="140">stream-6</text></g><g id="stream-7"><path d="M 930 230.0  L 930 230  L 940 230  L 940 90  L 840 90  L 840 60  L 850 60  L 850 55.0 " fill="none" marker-end="url(#id16)" stroke="rgb(0, 0, 0)" stroke-width="2" /><text fill="rgb(0, 0, 0)" font-family="Arial" font-size="10" text-anchor="middle" x="955" y="240">stream-7</text></g><g id="stream-8"><path d="M 930 55.0  L 930 60  L 1000 60  L 1000 55.0 " fill="none" marker-end="url(#id16)" stroke="rgb(0, 0, 0)" stroke-width="2" /><text fill="rgb(0, 0, 0)" font-family="Arial" font-size="10" text-anchor="middle" x="955" y="50">stream-8</text></g><g id="stream-9"><path d="M 1080 55.0  L 1080 60  L 1190 60  L 1190 160  L 1200 160  L 1200 155.0 " fill="none" marker-end="url(#id16)" stroke="rgb(0, 0, 0)" stroke-width="2" /><text fill="rgb(0, 0, 0)" font-family="Arial" font-size="10" text-anchor="middle" x="1105" y="50">stream-9</text></g><g id="stream-10"><path d="M 1080 55.0  L 1080 60  L 1090 60  L 1090 -40  L 1200 -40  L 1200 -45.0 " fill="none" marker-end="url(#id16)" stroke="rgb(0, 0, 0)" stroke-width="2" /><text fill="rgb(0, 0, 0)" font-family="Arial" font-size="10" text-anchor="middle" x="1105" y="70">stream-10</text></g><g id="stream-11"><path d="M 1280 -45.0  L 1280 -40  L 1350 -40  L 1350 -45.0 " fill="none" marker-end="url(#id16)" stroke="rgb(0, 0, 0)" stroke-width="2" /><text fill="rgb(0, 0, 0)" font-family="Arial" font-size="10" text-anchor="middle" x="1305" y="-50">stream-11</text></g><g id="stream-12"><path d="M 1430 -45.0  L 1430 -40  L 1440 -40  L 1440 20  L 840 20  L 840 50  L 730 50  L 730 90  L 490 90  L 490 130  L 500 130 " fill="none" marker-end="url(#id16)" stroke="rgb(0, 0, 0)" stroke-width="2" /><text fill="rgb(0, 0, 0)" font-family="Arial" font-size="10" text-anchor="middle" x="1455" y="-50">stream-12</text></g><g id="stream-13"><path d="M 40 520.0  L 40 520  L 50 520  L 50 270  L 300 270  L 300 70  L 390 70  L 390 40  L 480 40  L 480 -60  L 490 -60  L 490 -70  L 500 -70 " fill="none" marker-end="url(#id16)" stroke="rgb(0, 0, 0)" stroke-width="2" /><text fill="rgb(0, 0, 0)" font-family="Arial" font-size="10" text-anchor="middle" x="65" y="530">stream-13</text></g><g id="stream-14"><path d="M 580 -70.0  L 580 -70  L 650 -70 " fill="none" marker-end="url(#id16)" stroke="rgb(0, 0, 0)" stroke-width="2" /><text fill="rgb(0, 0, 0)" font-family="Arial" font-size="10" text-anchor="middle" x="605" y="-80">stream-14</text></g><g id="stream-15"><path d="M 230 30.0  L 230 30  L 300 30 " fill="none" marker-end="url(#id16)" stroke="rgb(0, 0, 0)" stroke-width="2" /><text fill="rgb(0, 0, 0)" font-family="Arial" font-size="10" text-anchor="middle" x="255" y="20">stream-15</text></g><g id="stream-16"><path d="M 730 -70.0  L 730 -70  L 800 -70 " fill="none" marker-end="url(#id16)" stroke="rgb(0, 0, 0)" stroke-width="2" /><text fill="rgb(0, 0, 0)" font-family="Arial" font-size="10" text-anchor="middle" x="755" y="-80">stream-16</text></g><g id="raw-1T"><path d="M 0 10.0  L 20.0 10.0  L 20.0 0  L 40 20.0  L 20.0 40  L 20.0 30.0  L 0 30.0  Z" fill="rgb(255, 255, 255)" stroke="rgb(0, 0, 0)" stroke-width="2" /></g><g id="raw-1"><text fill="rgb(0, 0, 0)" font-family="Arial" font-size="12" text-anchor="middle" x="20.0" y="25.0">raw-1</text></g><g id="C-1/TCT"><rect fill="rgb(255, 255, 255)" height="60" stroke="rgb(0, 0, 0)" stroke-width="2" width="80" x="300" y="0" /></g><g id="C-1/TC"><text fill="rgb(0, 0, 0)" font-family="Arial" font-size="12" text-anchor="middle" x="340.0" y="35.0">C-1/TC</text></g><g id="max-1T"><rect fill="rgb(255, 255, 255)" height="60" stroke="rgb(0, 0, 0)" stroke-width="2" width="80" x="500" y="100" /></g><g id="max-1"><text fill="rgb(0, 0, 0)" font-family="Arial" font-size="12" text-anchor="middle" x="540.0" y="135.0">max-1</text></g><g id="r-1T"><rect fill="rgb(255, 255, 255)" height="60" stroke="rgb(0, 0, 0)" stroke-width="2" width="80" x="650" y="100" /></g><g id="r-1"><text fill="rgb(0, 0, 0)" font-family="Arial" font-size="12" text-anchor="middle" x="690.0" y="135.0">r-1</text></g><g id="c-1/LCT"><rect fill="rgb(255, 255, 255)" height="60" stroke="rgb(0, 0, 0)" stroke-width="2" width="80" x="850" y="200" /></g><g id="c-1/LC"><text fill="rgb(0, 0, 0)" font-family="Arial" font-size="12" text-anchor="middle" x="890.0" y="235.0">c-1/LC</text></g><g id="v-1T"><rect fill="rgb(255, 255, 255)" height="60.0" stroke="rgb(0, 0, 0)" stroke-width="2" width="80" x="850" y="25.0" /></g><g id="v-1"><text fill="rgb(0, 0, 0)" font-family="Arial" font-size="12" text-anchor="middle" x="890.0" y="60.0">v-1</text></g><g id="splt-1T"><rect fill="rgb(255, 255, 255)" height="60.0" stroke="rgb(0, 0, 0)" stroke-width="2" width="80" x="1000" y="25.0" /></g><g id="splt-1"><text fill="rgb(0, 0, 0)" font-family="Arial" font-size="12" text-anchor="middle" x="1040.0" y="60.0">splt-1</text></g><g id="prod-1T"><rect fill="rgb(255, 255, 255)" height="60.0" stroke="rgb(0, 0, 0)" stroke-width="2" width="80" x="1200" y="125.0" /></g><g id="prod-1"><text fill="rgb(0, 0, 0)" font-family="Arial" font-size="12" text-anchor="middle" x="1240.0" y="160.0">prod-1</text></g><g id="c-2/FCT"><rect fill="rgb(255, 255, 255)" height="60.0" stroke="rgb(0, 0, 0)" stroke-width="2" width="80" x="1200" y="-75.0" /></g><g id="c-2/FC"><text fill="rgb(0, 0, 0)" font-family="Arial" font-size="12" text-anchor="middle" x="1240.0" y="-40.0">c-2/FC</text></g><g id="v-2T"><rect fill="rgb(255, 255, 255)" height="60.0" stroke="rgb(0, 0, 0)" stroke-width="2" width="80" x="1350" y="-75.0" /></g><g id="v-2"><text fill="rgb(0, 0, 0)" font-family="Arial" font-size="12" text-anchor="middle" x="1390.0" y="-40.0">v-2</text></g><g id="raw-2T"><path d="M 0 510.0  L 20.0 510.0  L 20.0 500  L 40 520.0  L 20.0 540  L 20.0 530.0  L 0 530.0  Z" fill="rgb(255, 255, 255)" stroke="rgb(0, 0, 0)" stroke-width="2" /></g><g id="raw-2"><text fill="rgb(0, 0, 0)" font-family="Arial" font-size="12" text-anchor="middle" x="20.0" y="525.0">raw-2</text></g><g id="v-3T"><rect fill="rgb(255, 255, 255)" height="60" stroke="rgb(0, 0, 0)" stroke-width="2" width="80" x="500" y="-100" /></g><g id="v-3"><text fill="rgb(0, 0, 0)" font-family="Arial" font-size="12" text-anchor="middle" x="540.0" y="-65.0">v-3</text></g><g id="prod-2T"><rect fill="rgb(255, 255, 255)" height="60" stroke="rgb(0, 0, 0)" stroke-width="2" width="80" x="800" y="-100" /></g><g id="prod-2"><text fill="rgb(0, 0, 0)" font-family="Arial" font-size="12" text-anchor="middle" x="840.0" y="-65.0">prod-2</text></g><g id="hex-1/1T"><rect fill="rgb(255, 255, 255)" height="60" stroke="rgb(0, 0, 0)" stroke-width="2" width="80" x="150" y="0" /></g><g id="hex-1/1"><text fill="rgb(0, 0, 0)" font-family="Arial" font-size="12" text-anchor="middle" x="190.0" y="35.0">hex-1/1</text></g><g id="hex-1/2T"><rect fill="rgb(255, 255, 255)" height="60" stroke="rgb(0, 0, 0)" stroke-width="2" width="80" x="650" y="-100" /></g><g id="hex-1/2"><text fill="rgb(0, 0, 0)" font-family="Arial" font-size="12" text-anchor="middle" x="690.0" y="-65.0">hex-1/2</text></g></svg>